<?xml version="1.0" encoding="utf-8"?>
<!-- Generator: Adobe Illustrator 24.2.1, SVG Export Plug-In . SVG Version: 6.00 Build 0)  -->
<svg version="1.1" id="Camada_1" xmlns="http://www.w3.org/2000/svg" xmlns:xlink="http://www.w3.org/1999/xlink" x="0px" y="0px"
	 viewBox="0 0 500 408.2" style="enable-background:new 0 0 500 408.2;" xml:space="preserve">
<style type="text/css">
	.st0{fill:#161614;}
</style>
<g>
	<path class="st0" d="M500,49c-18.4,8.2-38.2,13.7-58.9,16.2c21.2-12.7,37.4-32.8,45.1-56.8c-19.8,11.8-41.8,20.3-65.1,24.9
		c-18.7-19.9-45.4-32.4-74.9-32.4c-56.7,0-102.6,45.9-102.6,102.6c0,8,0.9,15.9,2.7,23.4C161,122.6,85.4,81.8,34.8,19.7
		C26,34.9,20.9,52.5,20.9,71.3c0,35.6,18.1,67,45.6,85.4c-16.8-0.5-32.6-5.1-46.5-12.8c0,0.4,0,0.9,0,1.3
		c0,49.7,35.4,91.2,82.3,100.6c-8.6,2.3-17.7,3.6-27,3.6c-6.6,0-13-0.6-19.3-1.8c13.1,40.8,50.9,70.4,95.8,71.2
		c-35.1,27.5-79.3,43.9-127.4,43.9c-8.3,0-16.4-0.5-24.5-1.4c45.4,29.1,99.3,46.1,157.2,46.1c188.7,0,291.9-156.3,291.9-291.9
		c0-4.4-0.1-8.9-0.3-13.3C468.9,87.7,486.2,69.6,500,49"/>
</g>
</svg>
