<?xml version="1.0" encoding="utf-8"?>
<!-- Generator: Adobe Illustrator 24.2.1, SVG Export Plug-In . SVG Version: 6.00 Build 0)  -->
<svg version="1.1" id="Camada_1" xmlns="http://www.w3.org/2000/svg" xmlns:xlink="http://www.w3.org/1999/xlink" x="0px" y="0px"
	 viewBox="0 0 500 488.3" style="enable-background:new 0 0 500 488.3;" xml:space="preserve">
<style type="text/css">
	.st0{fill:#161614;}
</style>
<g>
	<path class="st0" d="M250,0C111.9,0,0,111.9,0,250c0,110.5,71.6,204.2,171,237.2c12.5,2.3,17.1-5.4,17.1-12c0-6-0.2-25.7-0.3-46.5
		c-69.6,15.1-84.2-29.5-84.2-29.5c-11.4-28.9-27.8-36.6-27.8-36.6c-22.7-15.5,1.7-15.2,1.7-15.2c25.1,1.8,38.3,25.8,38.3,25.8
		c22.3,38.2,58.5,27.2,72.8,20.8c2.2-16.2,8.7-27.2,15.9-33.4c-55.5-6.3-113.9-27.8-113.9-123.6c0-27.3,9.8-49.6,25.8-67.1
		c-2.6-6.3-11.2-31.7,2.4-66.2c0,0,21-6.7,68.8,25.6c19.9-5.5,41.3-8.3,62.6-8.4c21.2,0.1,42.6,2.9,62.6,8.4
		c47.7-32.3,68.7-25.6,68.7-25.6c13.6,34.4,5,59.9,2.5,66.2c16,17.5,25.7,39.8,25.7,67.1c0,96-58.5,117.2-114.2,123.4
		c9,7.8,17,23,17,46.3c0,33.5-0.3,60.4-0.3,68.6c0,6.7,4.5,14.4,17.2,12C428.5,454.1,500,360.4,500,250C500,111.9,388.1,0,250,0z
		 M93.6,356.1c-0.6,1.2-2.5,1.6-4.3,0.8c-1.8-0.8-2.8-2.5-2.2-3.8c0.5-1.3,2.5-1.6,4.3-0.8C93.2,353.2,94.3,354.9,93.6,356.1z
		 M105.9,367.1c-1.2,1.1-3.5,0.6-5.1-1.2c-1.6-1.7-1.9-4.1-0.7-5.2c1.2-1.1,3.5-0.6,5.1,1.2C106.9,363.7,107.2,366,105.9,367.1z
		 M114.4,381.1c-1.5,1.1-4,0.1-5.6-2.2c-1.5-2.2-1.5-4.9,0-6c1.6-1.1,4-0.1,5.6,2.1C115.9,377.4,115.9,380.1,114.4,381.1z
		 M128.6,397.4c-1.4,1.5-4.3,1.1-6.4-1c-2.2-2-2.8-4.9-1.4-6.4c1.4-1.5,4.3-1.1,6.5,1C129.4,393,130.1,395.9,128.6,397.4z
		 M147.1,402.9c-0.6,2-3.4,2.8-6.2,2c-2.8-0.9-4.7-3.2-4.1-5.1c0.6-2,3.4-2.9,6.3-2C145.8,398.6,147.7,400.9,147.1,402.9z
		 M168.1,405.2c0.1,2.1-2.3,3.8-5.3,3.8c-3,0.1-5.4-1.6-5.4-3.6c0-2.1,2.3-3.8,5.3-3.8C165.6,401.5,168.1,403.2,168.1,405.2z
		 M188.7,404.4c0.4,2-1.7,4.1-4.7,4.6c-2.9,0.5-5.6-0.7-6-2.7c-0.4-2.1,1.7-4.1,4.6-4.7C185.7,401.2,188.3,402.4,188.7,404.4z"/>
</g>
</svg>
