<?xml version="1.0" encoding="utf-8"?>
<!-- Generator: Adobe Illustrator 24.2.1, SVG Export Plug-In . SVG Version: 6.00 Build 0)  -->
<svg version="1.1" id="Camada_1" xmlns="http://www.w3.org/2000/svg" xmlns:xlink="http://www.w3.org/1999/xlink" x="0px" y="0px"
	 viewBox="0 0 500 500" style="enable-background:new 0 0 500 500;" xml:space="preserve">
<style type="text/css">
	.st0{fill:#F2F2F2;}
</style>
<path class="st0" d="M0,35.8C0,16,16.4,0,36.7,0h426.6C483.6,0,500,16,500,35.8v428.4c0,19.8-16.4,35.8-36.7,35.8H36.7
	C16.4,500,0,484,0,464.2V35.8z M154.5,418.6V192.8h-75v225.8H154.5z M117,161.9c26.2,0,42.4-17.3,42.4-39c-0.5-22.2-16.3-39-41.9-39
	S75,100.8,75,122.9c0,21.7,16.3,39,41.5,39H117z M270.3,418.6V292.5c0-6.7,0.5-13.5,2.5-18.3c5.4-13.5,17.8-27.4,38.5-27.4
	c27.2,0,38,20.7,38,51.1v120.8h75V289.1c0-69.4-37-101.6-86.4-101.6c-39.8,0-57.7,21.9-67.7,37.3v0.8h-0.5c0.2-0.3,0.3-0.5,0.5-0.8
	v-31.9h-75c0.9,21.2,0,225.8,0,225.8h75.1V418.6z"/>
</svg>
