<?xml version="1.0" encoding="utf-8"?>
<!-- Generator: Adobe Illustrator 24.2.1, SVG Export Plug-In . SVG Version: 6.00 Build 0)  -->
<svg version="1.1" id="Layer_1" xmlns="http://www.w3.org/2000/svg" xmlns:xlink="http://www.w3.org/1999/xlink" x="0px" y="0px"
	 viewBox="0 0 500 500" style="enable-background:new 0 0 500 500;" xml:space="preserve">
<style type="text/css">
	.st0{fill:#264DE4;}
	.st1{fill:#2965F1;}
	.st2{fill:#EBEBEB;}
	.st3{fill:#FFFFFF;}
</style>
<path class="st0" d="M249.8,500l-144.7-40.2L72.9,98.3h354.2l-32.3,361.5L249.8,500L249.8,500z"/>
<path class="st1" d="M367.2,436.8l27.6-308.9H250v341.4L367.2,436.8L367.2,436.8z"/>
<path class="st2" d="M146.8,261.9l4,44.3H250v-44.3H146.8z M138.8,172.2l4,44.3H250v-44.3L138.8,172.2L138.8,172.2z M250,377.1
	l-0.2,0.1l-49.4-13.3l-3.2-35.4h-44.5l6.2,69.6l90.8,25.2l0.2-0.1V377.1z"/>
<path class="st3" d="M156.3,0H210v22.5h-31.2v22.5H210v22.5h-53.7V0z M220.7,0h53.7v19.5h-31.2v3.9h31.2v44.9h-53.7V47.8H252v-3.9
	h-31.3L220.7,0L220.7,0z M285.2,0h53.7v19.5h-31.2v3.9h31.2v44.9h-53.7V47.8h31.2v-3.9h-31.2L285.2,0L285.2,0z"/>
<path class="st3" d="M352.9,261.9l8-89.8H249.8v44.3h62.5l-4,45.4h-58.5v44.3h54.6l-5.1,57.5l-49.5,13.3v46.1l90.9-25.2l0.7-7.5
	l10.4-116.7L352.9,261.9L352.9,261.9z"/>
</svg>
