<?xml version="1.0" encoding="utf-8"?>
<!-- Generator: Adobe Illustrator 24.2.1, SVG Export Plug-In . SVG Version: 6.00 Build 0)  -->
<svg version="1.1" id="Layer_1" xmlns="http://www.w3.org/2000/svg" xmlns:xlink="http://www.w3.org/1999/xlink" x="0px" y="0px"
	 viewBox="0 0 500 500" style="enable-background:new 0 0 500 500;" xml:space="preserve">
<style type="text/css">
	.st0{fill:#FFFFFF;}
	.st1{fill:#E34E26;}
	.st2{fill:#EF662A;}
	.st3{fill:#EBEBEB;}
</style>
<g>
	<g>
		<g>
			<g>
				<path class="st0" d="M106,0h22.5v22.3h20.6V0h22.5v67.4h-22.5V44.8h-20.6v22.6H106L106,0L106,0z"/>
				<path class="st0" d="M201.3,22.4h-19.8V0h62.2v22.4h-19.8v45.1h-22.5L201.3,22.4L201.3,22.4z"/>
				<path class="st0" d="M253.6,0h23.5l14.5,23.7L306,0h23.5v67.4H307V34l-15.5,24h-0.4l-15.5-24v33.4h-22.1V0z"/>
				<path class="st0" d="M340.7,0h22.5v45.1h31.7v22.3h-54.2V0z"/>
			</g>
		</g>
	</g>
	<g id="Guides_to_delete">
		<g>
			<polygon class="st1" points="104.8,459.7 72.4,97 427.6,97 395.2,459.7 249.9,500 			"/>
			<polygon class="st2" points="250,126.6 250,469.2 367.5,436.6 395.2,126.6 			"/>
			<polygon class="st0" points="138.6,171.1 150.6,305.6 304.8,305.6 299.6,363.3 249.9,376.8 200.4,363.4 197.1,326.3 152.4,326.3 
				158.8,397.7 249.9,423 341.2,397.7 353.4,261.2 191.3,261.2 187.2,215.6 357.3,215.6 357.4,215.6 361.4,171.1 			"/>
			<g>
				<polygon class="st3" points="250,171.1 138.6,171.1 150.6,305.6 250,305.6 250,261.2 191.3,261.2 187.2,215.6 250,215.6 				"/>
				<polygon class="st3" points="250,376.7 249.9,376.8 200.4,363.4 197.1,326.3 152.4,326.3 158.8,397.7 249.9,423 250,423 				"/>
			</g>
		</g>
	</g>
</g>
</svg>
