<?xml version="1.0" encoding="utf-8"?>
<!-- Generator: Adobe Illustrator 24.2.1, SVG Export Plug-In . SVG Version: 6.00 Build 0)  -->
<svg version="1.1" id="Camada_1" xmlns="http://www.w3.org/2000/svg" xmlns:xlink="http://www.w3.org/1999/xlink" x="0px" y="0px"
	 viewBox="0 0 500 500" style="enable-background:new 0 0 500 500;" xml:space="preserve">
<style type="text/css">
	.st0{fill:#F7DF1E;}
</style>
<g>
	<path class="st0" d="M0,0h500v500H0V0z"/>
	<path d="M131.5,417.8l38.3-23.2c7.4,13.1,14.1,24.2,30.2,24.2c15.4,0,25.2-6,25.2-29.5V229.5h47V390c0,48.7-28.5,70.8-70.1,70.8
		C164.4,460.8,142.5,441.3,131.5,417.8"/>
	<path d="M297.6,412.8l38.3-22.2c10.1,16.4,23.2,28.5,46.3,28.5c19.5,0,31.9-9.7,31.9-23.2c0-16.1-12.8-21.8-34.2-31.2l-11.7-5
		c-33.9-14.4-56.4-32.6-56.4-70.8c0-35.2,26.9-62.1,68.8-62.1c29.9,0,51.4,10.4,66.8,37.6l-36.6,23.5c-8.1-14.4-16.8-20.1-30.2-20.1
		c-13.8,0-22.5,8.7-22.5,20.1c0,14.1,8.7,19.8,28.9,28.5l11.7,5c39.9,17.1,62.4,34.6,62.4,73.8c0,42.3-33.2,65.4-77.9,65.4
		C339.6,460.8,311.4,440,297.6,412.8"/>
</g>
</svg>
