<?xml version="1.0" encoding="utf-8"?>
<!-- Generator: Adobe Illustrator 24.2.1, SVG Export Plug-In . SVG Version: 6.00 Build 0)  -->
<svg version="1.1" id="Layer_1" xmlns="http://www.w3.org/2000/svg" xmlns:xlink="http://www.w3.org/1999/xlink" x="0px" y="0px"
	 viewBox="0 0 500 500" style="enable-background:new 0 0 500 500;" xml:space="preserve">
<style type="text/css">
	.st0{fill:#007BB6;}
	.st1{fill:#FFFFFF;}
</style>
<g>
	<path class="st0" d="M463,0H36.9C16.5,0,0,16.1,0,36v427.9C0,483.8,16.5,500,36.9,500H463c20.4,0,37-16.2,37-36.1V36
		C500,16.1,483.4,0,463,0z"/>
	<path class="st1" d="M74.1,187.4h74.2v238.6H74.1V187.4z M111.2,68.8c23.7,0,43,19.3,43,43c0,23.7-19.3,43-43,43
		c-23.8,0-43-19.3-43-43C68.2,88.1,87.4,68.8,111.2,68.8"/>
	<path class="st1" d="M194.8,187.4h71.1v32.6h1c9.9-18.8,34.1-38.5,70.2-38.5c75.1,0,89,49.4,89,113.7v130.9h-74.2V310
		c0-27.7-0.5-63.3-38.5-63.3c-38.6,0-44.5,30.2-44.5,61.3v118h-74.1V187.4z"/>
</g>
</svg>
