<?xml version="1.0" encoding="utf-8"?>
<!-- Generator: Adobe Illustrator 24.2.1, SVG Export Plug-In . SVG Version: 6.00 Build 0)  -->
<svg version="1.1" id="Camada_1" xmlns="http://www.w3.org/2000/svg" xmlns:xlink="http://www.w3.org/1999/xlink" x="0px" y="0px"
	 viewBox="0 0 500 500" style="enable-background:new 0 0 500 500;" xml:space="preserve">
<style type="text/css">
	.st0{fill-rule:evenodd;clip-rule:evenodd;fill:#8E714E;}
	.st1{fill-rule:evenodd;clip-rule:evenodd;fill:#442D22;}
	.st2{fill-rule:evenodd;clip-rule:evenodd;fill:#FFFFFF;}
	.st3{fill-rule:evenodd;clip-rule:evenodd;fill:#A6A385;}
	.st4{fill-rule:evenodd;clip-rule:evenodd;fill:#499D4A;}
	.st5{fill-rule:evenodd;clip-rule:evenodd;fill:#58AA50;}
</style>
<g>
	<g>
		<path class="st0" d="M466.1,237.7c-0.5,0.1-0.9,1.1-0.9,1.6c-0.1,3.6-0.2,13.2-0.2,19.7c0,0.2,0.3,0.5,0.5,0.5
			c1.4,0.1,4.6,0.2,7.4,0.2c3.9,0,6.1-0.5,7.4-1.1c3.2-1.6,4.8-5.1,4.8-9c0-8.8-6.1-12.1-15.2-12.1
			C469.2,237.4,467.4,237.4,466.1,237.7L466.1,237.7L466.1,237.7z M489.4,278c0-8.9-6.6-13.9-18.5-13.9c-0.5,0-4.3-0.1-5.2,0.1
			c-0.3,0.1-0.6,0.3-0.6,0.5c0,6.4-0.1,16.6,0.2,20.6c0.2,1.7,1.4,4.2,3,4.9c1.6,0.9,5.3,1.1,7.8,1.1
			C483.1,291.3,489.4,287.3,489.4,278L489.4,278L489.4,278z M447.7,232.7c0.9,0,3.6,0.3,10.6,0.3c6.6,0,11.8-0.2,18.2-0.2
			c7.8,0,18.7,2.8,18.7,14.5c0,5.8-4.1,10.4-9.4,12.6c-0.3,0.1-0.3,0.3,0,0.4c7.6,1.9,14.3,6.6,14.3,15.4c0,8.7-5.4,14.2-13.3,17.6
			c-4.8,2.1-10.7,2.8-16.8,2.8c-4.6,0-17-0.5-23.8-0.4c-0.7-0.3,0.6-3.5,1.3-4.1c1.6-0.1,2.9-0.2,4.6-0.7c2.4-0.6,2.7-1.4,3.1-5.1
			c0.2-3.2,0.2-14.3,0.2-22.3c0-10.9,0.1-18.3,0-21.9c-0.1-2.8-1.1-3.7-3.1-4.2c-1.5-0.3-4.1-0.6-6.1-0.9
			C445.6,236.2,447.1,233.1,447.7,232.7L447.7,232.7L447.7,232.7z M395.6,288.8c2.2,1.7,6.4,2.4,10.2,2.4c4.9,0,9.7-0.9,14.4-5.1
			c4.8-4.3,8.1-11,8.1-21.7c0-10.2-3.9-18.5-11.8-23.4c-4.5-2.8-10.3-4-17-4c-2,0-3.9,0.1-5.1,0.6c-0.3,0.2-0.9,1-0.9,1.4
			c-0.2,1.8-0.2,15.7-0.2,23.8c0,8.4,0,20.1,0.2,21.5C393.6,285.9,394.3,287.9,395.6,288.8L395.6,288.8L395.6,288.8z M375.1,232.7
			c1.7,0,8.3,0.3,11.5,0.3c5.7,0,9.7-0.3,20.5-0.3c9,0,16.6,2.4,22,7c6.6,5.7,10,13.5,10,23.1c0,13.6-6.2,21.5-12.5,26
			c-6.2,4.6-14.3,7.3-25.9,7.3c-6.1,0-16.7-0.2-25.4-0.3h-0.1c-0.5-0.8,0.7-4,1.4-4.1c2.3-0.3,3-0.4,4.2-0.8
			c1.9-0.7,2.3-1.7,2.5-5.1c0.3-6.2,0.2-13.7,0.2-22.2c0-6,0.1-17.9-0.1-21.7c-0.3-3.2-1.6-4-4.3-4.5c-1.4-0.3-3.2-0.6-5.7-0.9
			C373.1,236.1,374.7,233.3,375.1,232.7L375.1,232.7L375.1,232.7z"/>
		<path class="st1" d="M266,292.4c-2.3-0.3-3.9-0.6-5.9-1.5c-0.3-0.2-0.7-1.1-0.7-1.4c-0.2-3.2-0.2-12.2-0.2-18.2
			c0-4.9-0.8-9.1-2.9-12.1c-2.4-3.4-6-5.4-10.5-5.4c-4,0-9.3,2.7-13.7,6.5c-0.1,0.1-0.8,0.7-0.7-0.3c0-1,0.2-3,0.3-4.3
			c0.1-1.3-0.6-1.9-0.6-1.9c-2.9,1.4-11,3.3-14,3.6c-2.2,0.5-2.7,2.5-0.5,3.2h0.1c2.4,0.7,4.1,1.5,5.3,2.3c0.9,0.7,0.8,1.7,0.8,2.5
			c0.1,6.8,0.1,17.1-0.2,22.8c-0.1,2.3-0.7,3.1-2.3,3.4l0.2-0.1c-1.3,0.3-2.3,0.5-3.8,0.7c-0.5,0.5-0.5,3.4,0,4.1
			c1,0,6.2-0.3,10.6-0.3c6,0,9,0.3,10.6,0.3c0.6-0.7,0.8-3.4,0.5-4.1c-1.7-0.1-3-0.3-4.1-0.6c-1.6-0.4-2.1-1.2-2.2-3.1
			c-0.2-4.8-0.2-14.9-0.2-21.7c0-1.9,0.5-2.8,1.1-3.3c2.1-1.8,5.4-3.1,8.4-3.1c2.9,0,4.8,0.9,6.2,2.1c2,1.6,2.6,4,2.9,5.7
			c0.5,3.9,0.3,11.5,0.3,18.2c0,3.6-0.3,4.5-1.6,5c-0.6,0.3-2.3,0.6-4.2,0.8c-0.6,0.6-0.5,3.4,0,4.1c2.6,0,5.7-0.3,10.2-0.3
			c5.6,0,9.2,0.3,10.6,0.3C266.1,295.7,266.3,293.1,266,292.4L266,292.4L266,292.4z M291,257.9c-4.8,0-7.8,3.7-7.8,9.5
			c0,5.9,2.6,12.6,10,12.6c1.3,0,3.6-0.5,4.7-1.8c1.7-1.6,2.9-4.9,2.9-8.3C300.8,262.4,297.1,257.9,291,257.9L291,257.9L291,257.9z
			 M290.3,297.8c-1.8,0-3.1,0.5-3.9,1c-3.8,2.4-5.5,4.8-5.5,7.6c0,2.6,1,4.7,3.2,6.5c2.6,2.3,6.2,3.3,10.8,3.3
			c9.2,0,13.3-5,13.3-9.8c0-3.4-1.7-5.7-5.2-6.9C300.4,298.3,295.8,297.8,290.3,297.8L290.3,297.8L290.3,297.8z M291,321.2
			c-5.5,0-9.5-1.2-12.9-3.8c-3.3-2.5-4.8-6.3-4.8-8.9c0-0.7,0.2-2.7,1.8-4.5c1-1.1,3.2-3.2,8.3-6.7c0.2-0.1,0.3-0.2,0.3-0.4
			c0-0.2-0.2-0.4-0.4-0.5c-4.2-1.6-5.5-4.2-5.9-5.7v-0.2c-0.1-0.5-0.3-1.1,0.5-1.6c0.6-0.5,1.5-1,2.5-1.6c1.5-0.9,3.2-1.9,4.2-2.7
			c0.2-0.2,0.2-0.4,0.2-0.5c0-0.2-0.2-0.4-0.4-0.5c-6.3-2.1-9.5-6.8-9.5-13.8c0-4.6,2.1-8.8,5.8-11.4c2.5-2,8.8-4.4,13-4.4h0.3
			c4.2,0.1,6.6,1,9.9,2.2c1.8,0.6,3.5,0.9,5.9,0.9c3.5,0,5.1-1.1,6.3-2.3c0.1,0.2,0.3,0.6,0.4,1.8c0.1,1.2-0.3,2.9-1.2,4.2
			c-0.7,1-2.3,1.7-4,1.7h-0.5c-1.6-0.2-2.3-0.4-2.3-0.4l-0.4,0.2c-0.1,0.2,0,0.4,0.1,0.6l0.1,0.2c0.2,0.8,0.5,3.2,0.5,3.9
			c0,7.4-3,10.6-6.1,13.1c-3.1,2.3-6.6,3.7-10.6,4.1c-0.1,0-0.5,0-1.3,0.1c-0.5,0-1.1,0.1-1.2,0.1h-0.1c-0.7,0.2-2.5,1.1-2.5,2.6
			c0,1.4,0.8,3,4.7,3.2c0.8,0.1,1.6,0.1,2.5,0.2c5.1,0.4,11.5,0.8,14.5,1.8c4.1,1.5,6.8,5.2,6.8,9.7c0,6.7-4.8,12.9-12.7,16.8
			C299.1,320.3,295.2,321.2,291,321.2L291,321.2L291,321.2z M342.4,258.3c-1.9,0-3.6,0.5-4.9,1.4c-3.5,2.2-5.3,6.5-5.3,12.8
			c0,11.8,6,20.1,14.4,20.1c2.5,0,4.5-0.7,6.2-2.2c2.6-2.2,4-6.5,4-12.5C356.8,266.2,351,258.3,342.4,258.3L342.4,258.3L342.4,258.3
			z M344,297c-15.3,0-20.8-11.3-20.8-21.8c0-7.4,3-13.1,8.9-17.1c4.2-2.6,9.3-4.1,13.8-4.1c11.7,0,19.9,8.4,19.9,20.5
			c0,8.2-3.2,14.7-9.5,18.7C353.4,295.1,348.2,297,344,297L344,297L344,297z M183.2,258.3c-1.9,0-3.6,0.5-4.9,1.4
			c-3.5,2.2-5.3,6.5-5.3,12.8c0,11.8,6,20.1,14.4,20.1c2.5,0,4.5-0.7,6.2-2.2c2.6-2.2,4-6.5,4-12.5
			C197.7,266.2,191.9,258.3,183.2,258.3L183.2,258.3L183.2,258.3z M184.9,297c-15.3,0-20.8-11.3-20.8-21.8c0-7.4,3-13.1,8.9-17.1
			c4.2-2.6,9.3-4.1,13.8-4.1c11.7,0,19.9,8.4,19.9,20.5c0,8.2-3.2,14.7-9.5,18.7C194.3,295.1,189.2,297,184.9,297L184.9,297
			L184.9,297z M81.7,296.1c-0.2-0.3-0.4-1.1-0.3-2.1c0-0.7,0.2-1.2,0.3-1.4c1.9-0.3,2.9-0.5,4-0.8c1.8-0.5,2.5-1.4,2.6-3.7
			c0.3-5.4,0.3-15.7,0.2-22.8v-0.2c0-0.8,0-1.8-1-2.5c-1.4-0.9-3.2-1.7-5.4-2.3c-0.8-0.3-1.4-0.7-1.3-1.3c0-0.5,0.5-1.2,1.7-1.4
			c3-0.3,10.7-2.2,13.8-3.5c0.2,0.2,0.5,0.7,0.5,1.4l-0.1,1c-0.1,1-0.2,2.2-0.2,3.3c0,0.4,0.4,0.6,0.7,0.6c0.2,0,0.4-0.1,0.5-0.2
			c5.8-4.5,11-6.1,13.7-6.1c4.4,0,7.8,2.1,10.5,6.4c0.2,0.3,0.4,0.4,0.6,0.4c0.2,0,0.5-0.1,0.5-0.3c5.3-4.1,10.6-6.5,14.2-6.5
			c8.4,0,13.4,6.2,13.4,16.8c0,3,0,6.9-0.1,10.4c0,3.2-0.1,6-0.1,8.1c0,0.5,0.6,1.9,1.6,2.2c1.3,0.6,3,0.9,5.2,1.3h0.1
			c0.2,0.6-0.2,3-0.5,3.4c-0.5,0-1.4,0-2.3-0.1c-1.7-0.1-4.2-0.2-6.9-0.2c-5.6,0-8.5,0.1-11.3,0.3c-0.2-0.7-0.3-2.9,0-3.4
			c1.6-0.3,2.4-0.5,3.4-0.8c1.8-0.5,2.3-1.4,2.3-3.7c0-1.7,0.4-16.3-0.2-19.8c-0.5-3.6-3.2-7.8-9.2-7.8c-2.3,0-5.8,0.9-9.2,3.5
			c-0.2,0.2-0.4,0.6-0.4,0.9v0.1c0.4,1.9,0.4,4.1,0.4,7.4v5.9c0,4.1-0.1,7.8,0,10.7c0,2,1.2,2.4,2.2,2.8c0.5,0.1,0.9,0.2,1.4,0.3
			c0.8,0.2,1.6,0.4,2.9,0.6c0.2,0.4,0.2,1.5-0.1,2.5c-0.1,0.5-0.3,0.8-0.4,0.9c-3.1-0.1-6.2-0.2-10.8-0.2c-1.4,0-3.7,0.1-5.7,0.1
			c-1.6,0-3.2,0.1-4.1,0.1c-0.1-0.2-0.3-0.8-0.3-1.8c0-0.8,0.2-1.4,0.4-1.6c0.5-0.1,0.8-0.2,1.3-0.2c1.1-0.2,2-0.4,2.9-0.5
			c1.5-0.5,2.1-1.3,2.2-3.2c0.3-4.5,0.5-17.4-0.1-20.7c-1.1-5.2-4.1-7.8-8.8-7.8c-2.8,0-6.3,1.4-9.2,3.5c-0.5,0.4-0.8,1.3-0.8,2.1
			v5.3c0,6.5,0,14.6,0.1,18.1c0.1,1.1,0.5,2.3,2.5,2.8c0.5,0.1,1.2,0.3,2.1,0.4l1.6,0.3c0.2,0.5,0.1,2.7-0.3,3.4
			c-0.9,0-2-0.1-3.2-0.1c-1.9-0.1-4.3-0.2-7-0.2c-3.2,0-5.4,0.1-7.2,0.2C83.8,296.1,82.8,296.1,81.7,296.1L81.7,296.1L81.7,296.1z"
			/>
		<g>
			<path class="st2" d="M34.3,317.7l-3.7-1.3c0,0,0.5-18.9-6.3-20.2c-4.5-5.2,0.7-221.9,17-0.7c0,0-5.6,2.8-6.6,7.6
				C33.5,307.8,34.3,317.7,34.3,317.7L34.3,317.7L34.3,317.7z"/>
			<path class="st3" d="M34.3,317.7l-3.7-1.3c0,0,0.5-18.9-6.3-20.2c-4.5-5.2,0.7-221.9,17-0.7c0,0-5.6,2.8-6.6,7.6
				C33.5,307.8,34.3,317.7,34.3,317.7L34.3,317.7L34.3,317.7z"/>
			<path class="st2" d="M36.3,299.5c0,0,32.4-21.3,24.8-65.6c-7.3-32.2-24.5-42.8-26.4-46.8c-2.1-2.9-4.1-7.9-4.1-7.9l1.4,89.6
				C31.9,268.8,29.1,296.1,36.3,299.5"/>
			<path class="st4" d="M36.3,299.5c0,0,32.4-21.3,24.8-65.6c-7.3-32.2-24.5-42.8-26.4-46.8c-2.1-2.9-4.1-7.9-4.1-7.9l1.4,89.6
				C31.9,268.8,29.1,296.1,36.3,299.5"/>
			<path class="st2" d="M28.7,300.7c0,0-30.4-20.8-28.6-57.3c1.7-36.5,23.2-54.5,27.3-57.7c2.7-2.9,2.8-4,3-6.9
				c1.9,4.1,1.5,60.7,1.8,67.4C33,271.9,30.8,295.8,28.7,300.7L28.7,300.7L28.7,300.7z"/>
			<path class="st5" d="M28.7,300.7c0,0-30.4-20.8-28.6-57.3c1.7-36.5,23.2-54.5,27.3-57.7c2.7-2.9,2.8-4,3-6.9
				c1.9,4.1,1.5,60.7,1.8,67.4C33,271.9,30.8,295.8,28.7,300.7L28.7,300.7L28.7,300.7z"/>
		</g>
	</g>
</g>
</svg>
