<?xml version="1.0" encoding="utf-8"?>
<!-- Generator: Adobe Illustrator 24.2.1, SVG Export Plug-In . SVG Version: 6.00 Build 0)  -->
<svg version="1.1" id="Camada_1" xmlns="http://www.w3.org/2000/svg" xmlns:xlink="http://www.w3.org/1999/xlink" x="0px" y="0px"
	 viewBox="0 0 500 500" style="enable-background:new 0 0 500 500;" xml:space="preserve">
<style type="text/css">
	.st0{fill-rule:evenodd;clip-rule:evenodd;fill:#006189;}
	.st1{fill-rule:evenodd;clip-rule:evenodd;fill:#E38F00;}
</style>
<g>
	<path class="st0" d="M0,356.7h16.5v-65.4l25.8,57c2.9,6.9,7.1,9.4,15.2,9.4c8.1,0,12.1-2.5,15.1-9.4l25.6-57v65.4h16.6v-65.4
		c0-6.3-2.5-9.4-7.9-11c-12.6-3.8-20.9-0.5-24.8,8L57,344.6l-24.4-56.4c-3.7-8.5-12.2-11.8-24.9-8c-5.2,1.7-7.7,4.7-7.7,11V356.7
		L0,356.7z"/>
	<path class="st0" d="M128.6,303.5h16.6v35.9c-0.1,2,0.6,6.6,9.6,6.7c4.7,0.1,35.8,0,36.1,0v-42.9h16.6c0,0,0,58.5,0,58.8
		c0,14.5-17.9,17.6-26.3,17.8H129v-11c0.1,0,52.3,0,52.4,0c10.7-1.1,9.4-6.5,9.4-8.3v-4.3h-35.2c-16.4-0.1-26.9-7.4-27-15.6
		C128.6,339.8,129,303.8,128.6,303.5L128.6,303.5z"/>
	<path class="st0" d="M485.3,261.9c-10.2-0.3-18,0.8-24.6,3.6c-1.9,0.8-5,0.8-5.2,3.2c1,1,1.1,2.7,2,4.1c1.5,2.5,4.2,6,6.6,7.7
		c2.7,2,5.3,4.1,8.1,5.8c5,3,10.5,4.8,15.4,7.9c2.8,1.8,5.6,4.1,8.4,6c1.4,1,2.3,2.7,4.1,3.3c0-0.1,0-0.3,0-0.4
		c-0.9-1.1-1.1-2.8-2-4.1c-1.3-1.3-2.5-2.4-3.8-3.7c-3.7-4.9-8.3-9.3-13.2-12.8c-4.1-2.8-12.9-6.6-14.6-11.3c0,0-0.1-0.1-0.3-0.3
		c2.8-0.3,6.1-1.3,8.8-2c4.3-1.1,8.3-0.9,12.7-2c2-0.5,4.1-1.1,6.1-1.8c0-0.4,0-0.8,0-1.1c-2.3-2.3-3.9-5.3-6.3-7.5
		c-6.5-5.6-13.6-11-20.9-15.6c-3.9-2.5-9-4.2-13.2-6.3c-1.5-0.8-4.1-1.1-5-2.4c-2.3-2.8-3.6-6.5-5.2-9.8c-3.7-7-7.2-14.7-10.4-22.1
		c-2.3-5-3.7-9.9-6.5-14.5c-13.1-21.6-27.3-34.7-49.1-47.5c-4.7-2.7-10.3-3.8-16.2-5.2c-3.2-0.1-6.3-0.4-9.5-0.5
		c-2-0.9-4.1-3.3-5.8-4.4c-7.2-4.6-25.9-14.5-31.2-1.4c-3.4,8.3,5.1,16.4,8,20.6c2.2,2.9,5,6.2,6.5,9.5c0.9,2.2,1.1,4.4,2,6.7
		c2,5.6,3.9,11.8,6.6,17c1.4,2.7,2.9,5.5,4.7,7.9c1,1.4,2.8,2,3.2,4.3c-1.8,2.5-1.9,6.3-2.9,9.5c-4.6,14.3-2.8,32.1,3.7,42.6
		c2,3.2,6.9,10.2,13.3,7.5c5.7-2.3,4.4-9.5,6.1-15.9c0.4-1.5,0.1-2.5,0.9-3.6c0,0.1,0,0.3,0,0.3c1.8,3.6,3.6,7,5.2,10.5
		c3.9,6.2,10.8,12.7,16.5,17c3,2.3,5.5,6.2,9.3,7.6c0-0.1,0-0.3,0-0.4c-0.1,0-0.1,0-0.3,0c-0.8-1.1-1.9-1.7-2.9-2.5
		c-2.3-2.3-4.8-5.1-6.6-7.6c-5.3-7.1-10-15-14.2-23.1c-2-3.9-3.8-8.3-5.5-12.2c-0.8-1.5-0.8-3.8-2-4.6c-1.9,2.8-4.7,5.2-6.1,8.6
		c-2.4,5.5-2.7,12.2-3.6,19.2c-0.5,0.1-0.3,0-0.5,0.3c-4.1-1-5.5-5.2-7-8.8c-3.8-9-4.4-23.5-1.1-33.9c0.9-2.7,4.7-11,3.2-13.6
		c-0.8-2.4-3.3-3.8-4.7-5.7c-1.7-2.4-3.4-5.5-4.6-8.1c-3-7.1-4.6-15-7.9-22.1c-1.5-3.3-4.2-6.7-6.3-9.8c-2.4-3.4-5.1-5.8-7-9.9
		c-0.6-1.4-1.5-3.7-0.5-5.2c0.3-1,0.8-1.4,1.8-1.6c1.7-1.4,6.3,0.4,8,1.1c4.7,1.9,8.6,3.7,12.6,6.3c1.8,1.3,3.7,3.7,6,4.3
		c0.9,0,1.8,0,2.7,0c4.1,0.9,8.6,0.3,12.4,1.4c6.7,2.2,12.8,5.3,18.3,8.8c16.6,10.5,30.3,25.5,39.6,43.4c1.5,2.9,2.2,5.6,3.6,8.6
		c2.7,6.2,6,12.6,8.6,18.7c2.7,6,5.2,12.1,9,17c1.9,2.7,9.5,4.1,12.9,5.5c2.5,1.1,6.5,2.2,8.8,3.6c4.3,2.7,8.6,5.7,12.7,8.6
		C478.5,256.2,484.9,259.3,485.3,261.9L485.3,261.9z"/>
	<path class="st0" d="M355.8,151.6c-2.2,0-3.7,0.3-5.2,0.6c0,0,0,0.1,0,0.3c0.1,0,0.1,0,0.3,0c1,2,2.8,3.4,4.1,5.2
		c1,2,1.9,4.1,2.9,6.1c0.1-0.1,0.3-0.3,0.3-0.3c1.8-1.3,2.7-3.3,2.7-6.3c-0.8-0.9-0.9-1.8-1.5-2.7
		C358.5,153.2,356.8,152.6,355.8,151.6L355.8,151.6z"/>
	<path class="st1" d="M220.2,356.7H268c5.6,0,10.9-1.1,15.2-3.2c7.2-3.3,10.7-7.7,10.7-13.6v-12.2c0-4.7-3.9-9.1-11.8-12.2
		c-4.1-1.5-9.1-2.4-14.1-2.4h-20.1c-6.7,0-9.9-2-10.8-6.5c-0.1-0.5-0.1-1-0.1-1.5v-7.5c0-0.4,0-0.9,0.1-1.4c0.9-3.4,2.7-4.3,8.5-5
		c0.5,0,1.1,0,1.5,0h47.3v-11H248c-6.7,0-10.3,0.4-13.5,1.4c-9.8,3-14.1,7.9-14.1,16.4v9.6c0,7.5,8.4,13.8,22.6,15.4
		c1.5,0.1,3.2,0.1,4.8,0.1H265c0.6,0,1.3,0,1.8,0.1c5.2,0.5,7.5,1.4,9,3.3c1,1,1.3,1.9,1.3,3v9.6c0,1.1-0.8,2.7-2.3,3.9
		c-1.5,1.3-3.9,2.2-7.1,2.3c-0.6,0-1,0.1-1.6,0.1h-45.8V356.7L220.2,356.7z"/>
	<path class="st1" d="M397.2,337.5c0,11.3,8.5,17.6,25.5,18.9c1.6,0.1,3.2,0.3,4.8,0.3h43.2v-11h-43.5c-9.6,0-13.3-2.4-13.3-8.3
		v-57.1h-16.6V337.5L397.2,337.5z"/>
	<path class="st1" d="M304.4,338v-39.3c0-10,7.1-16.1,20.9-18c1.5-0.1,3-0.3,4.4-0.3h31.5c1.7,0,3,0.1,4.7,0.3
		c13.8,1.9,20.8,8,20.8,18V338c0,8.1-2.9,12.4-9.8,15.4l16.2,14.7h-19.2l-13.2-11.9l-13.3,0.8h-17.8c-2.9,0-6.2-0.4-9.6-1.3
		C309.6,352.8,304.4,347.2,304.4,338L304.4,338z M322.3,337.2c0,0.5,0.3,1,0.4,1.7c0.9,4.6,5.2,7.1,11.8,7.1h15l-13.7-12.4h19.2
		l12.1,10.9c2.3-1.3,3.7-3,4.2-5.3c0.1-0.5,0.1-1.1,0.1-1.7v-37.7c0-0.5,0-1-0.1-1.5c-0.9-4.3-5.2-6.7-11.7-6.7h-25
		c-7.4,0-12.2,3.2-12.2,8.3V337.2L322.3,337.2z"/>
	<path class="st1" d="M478.3,356.8h2.4v-9.3h3.2v-1.9H475v1.9h3.3V356.8L478.3,356.8z M496.7,356.8h2.3v-11.2h-3.4l-2.8,7.6l-3-7.6
		h-3.3v11.2h2.2v-8.5h0.1l3.2,8.5h1.7l3.2-8.5l0,0V356.8L496.7,356.8z"/>
</g>
</svg>
