<?xml version="1.0" encoding="utf-8"?>
<!-- Generator: Adobe Illustrator 24.2.1, SVG Export Plug-In . SVG Version: 6.00 Build 0)  -->
<svg version="1.1" id="Camada_1" xmlns="http://www.w3.org/2000/svg" xmlns:xlink="http://www.w3.org/1999/xlink" x="0px" y="0px"
	 viewBox="0 0 500 500" style="enable-background:new 0 0 500 500;" xml:space="preserve">
<style type="text/css">
	.st0{fill:#539E43;}
</style>
<g>
	<path class="st0" d="M250,499.5c-6.9,0-13.3-1.8-19.3-5l-61-36.2c-9.2-5-4.6-6.9-1.8-7.8c12.4-4.1,14.7-5,27.5-12.4
		c1.4-0.9,3.2-0.5,4.6,0.5l46.8,28c1.8,0.9,4.1,0.9,5.5,0l183.1-106c1.8-0.9,2.8-2.8,2.8-5V143.9c0-2.3-0.9-4.1-2.8-5L252.3,33.3
		c-1.8-0.9-4.1-0.9-5.5,0L63.7,138.8c-1.8,0.9-2.8,3.2-2.8,5v211.5c0,1.8,0.9,4.1,2.8,5l50,28.9c27.1,13.8,44.1-2.3,44.1-18.4V162.2
		c0-2.8,2.3-5.5,5.5-5.5h23.4c2.8,0,5.5,2.3,5.5,5.5V371c0,36.2-19.7,57.4-54.1,57.4c-10.6,0-18.8,0-42.2-11.5l-48.2-27.5
		c-11.9-6.9-19.3-19.7-19.3-33.5V144.3c0-13.8,7.3-26.6,19.3-33.5l183.1-106c11.5-6.4,27.1-6.4,38.5,0l183.1,106
		c11.9,6.9,19.3,19.7,19.3,33.5v211.5c0,13.8-7.3,26.6-19.3,33.5l-183.1,106C263.3,498.1,256.4,499.5,250,499.5L250,499.5z
		 M306.4,354c-80.3,0-96.8-36.7-96.8-67.9c0-2.8,2.3-5.5,5.5-5.5H239c2.8,0,5,1.8,5,4.6c3.7,24.3,14.2,36.2,62.9,36.2
		c38.5,0,55.1-8.7,55.1-29.4c0-11.9-4.6-20.6-64.7-26.6c-50-5-81.2-16.1-81.2-56c0-37.2,31.2-59.2,83.5-59.2
		c58.7,0,87.6,20.2,91.3,64.2c0,1.4-0.5,2.8-1.4,4.1c-0.9,0.9-2.3,1.8-3.7,1.8H362c-2.3,0-4.6-1.8-5-4.1
		c-5.5-25.2-19.7-33.5-57.4-33.5c-42.2,0-47.3,14.7-47.3,25.7c0,13.3,6,17.4,62.9,24.8c56.4,7.3,83.1,17.9,83.1,57.4
		C397.8,331.1,364.7,354,306.4,354L306.4,354z"/>
</g>
</svg>
