<?xml version="1.0" encoding="utf-8"?>
<!-- Generator: Adobe Illustrator 24.2.1, SVG Export Plug-In . SVG Version: 6.00 Build 0)  -->
<svg version="1.1" xmlns="http://www.w3.org/2000/svg" xmlns:xlink="http://www.w3.org/1999/xlink" x="0px" y="0px"
	 viewBox="0 0 500 500" style="enable-background:new 0 0 500 500;" xml:space="preserve">
<style type="text/css">
	.st0{display:none;}
	.st1{display:inline;fill:#707070;}
	.st2{fill:#53C1DE;}
</style>
<g id="Camada_2" class="st0">
	<rect x="-74" y="-74" class="st1" width="648" height="648"/>
</g>
<g id="Camada_1">
	<g>
		<path class="st2" d="M411.3,171.8c-5.2-1.8-10.5-3.5-16.1-5.1c0.9-3.7,1.7-7.4,2.5-11c12.2-59,4.2-106.6-22.9-122.2
			c-26-15-68.6,0.6-111.6,38.1c-4.1,3.6-8.3,7.4-12.4,11.4c-2.8-2.6-5.5-5.2-8.3-7.6c-45.1-40-90.2-56.9-117.4-41.2
			C99,49.3,91.3,94,102.3,149.9c1.1,5.4,2.3,10.9,3.7,16.5c-6.4,1.8-12.6,3.7-18.5,5.8c-52.8,18.4-86.6,47.3-86.6,77.2
			c0,30.9,36.2,62,91.3,80.8c4.3,1.5,8.8,2.9,13.5,4.2c-1.5,6.1-2.8,12-3.9,17.8c-10.4,55-2.3,98.6,23.7,113.6
			c26.8,15.5,71.8-0.4,115.6-38.7c3.5-3,6.9-6.2,10.4-9.6c4.5,4.3,9,8.5,13.5,12.3c42.4,36.5,84.3,51.2,110.2,36.2
			c26.8-15.5,35.5-62.4,24.2-119.4c-0.9-4.4-1.9-8.8-3-13.3c3.2-0.9,6.3-1.9,9.3-2.9c57.2-19,94.4-49.6,94.4-80.9
			C500,219.4,465.2,190.4,411.3,171.8z M277.1,87.7C314,55.6,348.4,43,364.1,52c16.7,9.6,23.2,48.5,12.7,99.5
			c-0.7,3.3-1.4,6.6-2.2,9.9c-20.7-4.8-43.2-8.3-66.7-10.5c-13.7-19.5-27.9-37.3-42.2-52.7C269.5,94.5,273.3,91,277.1,87.7z
			 M159.6,250c6.4-13.4,13.5-26.9,21.2-40.2l0,0c7.7-13.4,15.8-26.3,24.2-38.5c14.8-1.1,30.1-1.7,45.4-1.7h0
			c15.5,0,30.7,0.6,45.5,1.7c8.3,12.2,16.3,25,24,38.4c7.8,13.5,15,26.9,21.5,40c-6.5,13.4-13.7,26.9-21.4,40.4
			c-7.8,13.5-15.8,26.4-23.9,38.6c-14.8,1.1-30.1,1.6-45.7,1.6c-15.5,0-30.6-0.5-45.2-1.4c-8.5-12.3-16.6-25.3-24.4-38.7h0
			C173.2,276.9,166,263.4,159.6,250z M148.3,275.1c4.5,8.6,9.2,17.3,14.1,25.8h0c5.1,8.7,10.3,17.3,15.7,25.6
			c-16.3-1.8-31.8-4.3-46-7.4C136.5,304.9,141.9,290.1,148.3,275.1z M148.3,224.9c-6.2-14.7-11.5-29.2-15.9-43.2
			c14.2-3.2,29.4-5.8,45.2-7.8c-5.2,8.2-10.4,16.6-15.3,25.1v0C157.4,207.7,152.7,216.3,148.3,224.9z M338.6,300.7
			c5.1-8.8,9.9-17.6,14.5-26.4c6.7,15.2,12.3,29.9,16.8,43.9c-14.5,3.3-30.1,6-46.6,7.9C328.4,317.9,333.6,309.5,338.6,300.7z
			 M352.8,224.9c-4.5-8.6-9.3-17.3-14.4-26c-4.9-8.5-10-16.9-15.2-25c15.9,2,31.2,4.7,45.5,8C364.5,195.8,359.2,210.2,352.8,224.9z
			 M250.7,113.5c9.8,10.7,19.7,22.5,29.4,35.5c-9.8-0.5-19.6-0.7-29.6-0.7c-9.9,0-19.7,0.2-29.4,0.7
			C230.8,136.1,240.7,124.2,250.7,113.5z M135.7,52.7c16.7-9.7,53.6,4.1,92.5,38.7c2.5,2.2,5,4.5,7.5,6.9
			c-14.5,15.6-28.8,33.3-42.5,52.6c-23.5,2.2-45.9,5.7-66.6,10.4c-1.3-5.2-2.4-10.4-3.4-15.4C113.8,97.9,120.1,61.7,135.7,52.7z
			 M111.4,313.9c-4.2-1.2-8.4-2.5-12.3-3.9c-24.3-8.3-44.4-19.1-58.2-30.9c-12.4-10.6-18.6-21.1-18.6-29.7
			c0-18.2,27.1-41.4,72.3-57.1c5.5-1.9,11.2-3.7,17.2-5.4c6.2,20.3,14.4,41.6,24.3,63C126,271.8,117.7,293.4,111.4,313.9z
			 M226.9,411.1c-19.4,16.9-38.8,28.9-55.9,35c-15.4,5.4-27.6,5.6-35,1.3c-15.7-9.1-22.3-44.1-13.4-91.1c1-5.4,2.2-10.9,3.6-16.6
			c20.4,4.5,43.1,7.8,67.3,9.7c13.8,19.4,28.3,37.3,42.8,52.9C233.3,405.4,230.1,408.4,226.9,411.1z M251.3,387
			c-10.1-10.9-20.2-23-30-35.9c9.6,0.4,19.3,0.6,29.2,0.6c10.2,0,20.2-0.2,30.1-0.7C270.9,364.2,261.1,376.3,251.3,387z
			 M380.8,416.7c-3,16-9,26.7-16.3,31c-15.7,9.1-49.4-2.7-85.6-33.9c-4.2-3.6-8.3-7.4-12.5-11.4c14.1-15.4,28.1-33.3,41.8-53.1
			c24.1-2.1,46.9-5.6,67.6-10.4c1,4.1,1.9,8.1,2.7,12.1C383.4,376,384.1,398.9,380.8,416.7z M398.9,310.2c-2.7,0.9-5.5,1.8-8.4,2.6
			c-6.3-20-14.8-41.3-25.3-63.2c10-21.4,18.1-42.4,24.3-62.3c5.1,1.5,10.1,3,14.8,4.7c46.2,15.9,74.4,39.4,74.4,57.5
			C478.7,268.8,448.3,293.8,398.9,310.2z"/>
		<path class="st2" d="M250.5,204.9c24.6,0,44.6,20,44.6,44.6c0,24.6-20,44.6-44.6,44.6c-24.6,0-44.6-20-44.6-44.6
			C205.9,224.9,225.9,204.9,250.5,204.9"/>
	</g>
</g>
</svg>
