<?xml version="1.0" encoding="utf-8"?>
<!-- Generator: Adobe Illustrator 24.2.1, SVG Export Plug-In . SVG Version: 6.00 Build 0)  -->
<svg version="1.1" id="Camada_1" xmlns="http://www.w3.org/2000/svg" xmlns:xlink="http://www.w3.org/1999/xlink" x="0px" y="0px"
	 viewBox="0 0 500 500" style="enable-background:new 0 0 500 500;" xml:space="preserve">
<style type="text/css">
	.st0{fill:#764ABC;}
</style>
<g>
	<path class="st0" d="M346.4,343.7c18.5-1.9,32.4-17.8,31.8-36.9c-0.6-19.1-16.5-34.4-35.6-34.4h-1.3c-19.7,0.6-35,17.2-34.4,36.9
		c0.6,9.5,4.5,17.8,10.2,23.5c-21.6,42.6-54.7,73.8-104.3,99.9c-33.7,17.8-68.7,24.2-103.7,19.7C80.5,448.7,58.2,436,44.2,415
		c-20.4-31.2-22.3-64.9-5.1-98.6c12.1-24.2,31.2-42,43.3-50.9c-2.5-8.3-6.4-22.3-8.3-32.5c-92.3,66.8-82.7,157.2-54.7,199.8
		c21,31.8,63.6,51.5,110.7,51.5c12.7,0,25.5-1.3,38.2-4.5C249.7,463.9,311.5,415.6,346.4,343.7z M458.4,264.8
		C410.1,208.2,338.8,177,257.4,177h-10.2c-5.7-11.5-17.8-19.1-31.2-19.1h-1.3c-19.7,0.6-35,17.2-34.4,36.9
		c0.6,19.1,16.5,34.4,35.6,34.4h1.3c14-0.6,26.1-9.5,31.2-21.6h11.5c48.4,0,94.2,14,135.5,41.4c31.8,21,54.7,48.4,67.4,81.4
		c10.8,26.7,10.2,52.8-1.3,75.1c-17.8,33.7-47.7,52.2-87.2,52.2c-25.5,0-49.6-7.6-62.4-13.4c-7,6.4-19.7,16.5-28.6,22.9
		c27.4,12.7,55.4,19.7,82.1,19.7c61.1,0,106.3-33.7,123.4-67.4C507.4,382.5,506.2,318.9,458.4,264.8z M135.2,354.5
		c0.6,19.1,16.5,34.4,35.6,34.4h1.3c19.7-0.6,35-17.2,34.4-36.9c-0.6-19.1-16.5-34.4-35.6-34.4h-1.3c-1.3,0-3.2,0-4.5,0.6
		C139,275,128.2,227.9,132,177c2.5-38.2,15.3-71.3,37.5-98.6c18.5-23.5,54.1-35,78.3-35.6c67.4-1.3,96.1,82.7,98,116.4
		c8.3,1.9,22.3,6.4,31.8,9.5C370,65.6,306.4,12.2,245.3,12.2c-57.3,0-110.1,41.4-131.1,102.4c-29.3,81.4-10.2,159.7,25.5,221.4
		C136.5,340.5,134.6,347.5,135.2,354.5z"/>
</g>
</svg>
