<?xml version="1.0" encoding="utf-8"?>
<!-- Generator: Adobe Illustrator 24.2.1, SVG Export Plug-In . SVG Version: 6.00 Build 0)  -->
<svg version="1.1" id="Camada_1" xmlns="http://www.w3.org/2000/svg" xmlns:xlink="http://www.w3.org/1999/xlink" x="0px" y="0px"
	 viewBox="0 0 500 500" style="enable-background:new 0 0 500 500;" xml:space="preserve">
<style type="text/css">
	.st0{fill:#CD6799;}
</style>
<g>
	<path class="st0" d="M430.6,278.2c-17.4,0.1-32.6,4.3-45.3,10.5c-4.7-9.2-9.3-17.4-10.1-23.5c-0.9-7-2-11.3-0.9-19.7
		c1.1-8.4,6-20.4,5.9-21.3c-0.1-0.9-1.1-5.2-11.1-5.3c-10-0.1-18.7,1.9-19.7,4.6c-1,2.6-2.9,8.7-4.2,14.9
		c-1.7,9.1-20.1,41.7-30.6,58.8c-3.4-6.7-6.3-12.5-6.9-17.2c-0.9-7-2-11.3-0.9-19.7c1.1-8.4,6-20.4,5.9-21.3
		c-0.1-0.9-1.1-5.2-11.1-5.3c-10-0.1-18.7,1.9-19.7,4.6c-1,2.6-2.1,8.9-4.2,14.9c-2.1,6-26.5,60.4-32.9,74.5
		c-3.3,7.2-6.1,13-8.1,16.9l0,0c0,0-0.1,0.3-0.4,0.7c-1.7,3.4-2.7,5.2-2.7,5.2s0,0,0,0.1c-1.4,2.5-2.8,4.7-3.6,4.7
		c-0.5,0-1.6-6.6,0.2-15.5c3.7-18.9,12.3-48.3,12.2-49.3c0-0.5,1.6-5.7-5.7-8.3c-7.1-2.6-9.7,1.7-10.3,1.7s-1.1,1.6-1.1,1.6
		s7.9-33-15.2-33c-14.4,0-34.3,15.8-44.2,30c-6.2,3.4-19.4,10.6-33.6,18.3c-5.4,3-11,6-16.2,8.9c-0.4-0.4-0.7-0.8-1.1-1.2
		c-27.9-29.9-79.6-50.9-77.4-91c0.8-14.6,5.8-52.9,99.2-99.5c76.9-37.9,138-27.4,148.6-4.1c15.2,33.2-32.8,94.9-112.2,103.9
		c-30.3,3.4-46.2-8.3-50.2-12.7c-4.2-4.6-4.8-4.8-6.4-3.9c-2.6,1.4-0.9,5.5,0,7.9c2.4,6.2,12.1,17.2,28.7,22.5
		c14.6,4.7,50.1,7.4,93.1-9.2c48.1-18.6,85.7-70.4,74.7-113.7c-11-44-84.1-58.5-153.2-34c-41.1,14.6-85.6,37.6-117.7,67.6
		C4.2,177.8-1.8,208.8,0.7,221.7c8.9,46,72.3,76,97.7,98.1c-1.3,0.7-2.5,1.4-3.5,1.9c-12.7,6.3-61.1,31.6-73.1,58.3
		c-13.7,30.3,2.2,52,12.7,55c32.6,9,66.1-7.2,84.1-34.1s15.8-61.7,7.5-77.7c-0.1-0.2-0.2-0.4-0.4-0.5c3.3-1.9,6.7-3.9,10-5.8
		c6.5-3.8,12.9-7.4,18.3-10.3c-3.1,8.5-5.4,18.6-6.5,33.2c-1.4,17.2,5.7,39.4,14.9,48.2c4.1,3.8,8.9,3.9,12.1,3.9
		c10.8,0,15.6-8.9,21-19.5c6.6-13,12.5-28,12.5-28s-7.4,40.7,12.7,40.7c7.3,0,14.7-9.5,18-14.3v0.1c0,0,0.2-0.3,0.5-0.9
		c0.7-1.2,1.2-1.9,1.2-1.9v-0.2c2.9-5.1,9.5-16.7,19.3-36c12.6-24.8,24.7-55.9,24.7-55.9s1.1,7.6,4.8,20.2
		c2.2,7.4,6.8,15.5,10.4,23.4c-2.9,4.1-4.7,6.4-4.7,6.4s0,0,0.1,0.1c-2.4,3.1-4.9,6.5-7.8,9.8c-10,11.9-21.8,25.5-23.5,29.4
		c-1.9,4.7-1.5,8,2.2,10.8c2.6,2,7.4,2.3,12.2,2c8.9-0.6,15.2-2.8,18.3-4.2c4.8-1.7,10.5-4.4,15.8-8.3c9.8-7.2,15.7-17.5,15.2-31.1
		c-0.3-7.5-2.7-15-5.8-22c0.9-1.3,1.7-2.6,2.6-3.8c15.4-22.5,27.4-47.3,27.4-47.3s1.1,7.6,4.8,20.2c1.8,6.4,5.6,13.3,8.9,20.1
		c-14.5,11.8-23.5,25.5-26.7,34.4c-5.8,16.6-1.3,24.1,7.2,25.8c3.8,0.8,9.3-1,13.3-2.7c5.1-1.6,11.1-4.5,16.9-8.7
		c9.8-7.2,19.2-17.3,18.6-30.9c-0.3-6.2-1.9-12.3-4.2-18.3c12.3-5.1,28.2-7.9,48.5-5.6c43.5,5.1,52,32.2,50.4,43.6
		s-10.8,17.6-13.8,19.5c-3,1.9-4,2.6-3.7,3.9c0.4,2,1.8,1.9,4.4,1.6c3.6-0.6,22.8-9.2,23.6-30.2C501.3,307.3,475.8,278,430.6,278.2
		L430.6,278.2z M95.3,391.3c-14.4,15.7-34.5,21.6-43.2,16.6c-9.3-5.4-5.7-28.6,12.1-45.2c10.8-10.1,24.6-19.5,33.9-25.3
		c2.1-1.3,5.2-3.1,8.9-5.4c0.6-0.4,1-0.5,1-0.5l0,0c0.7-0.5,1.5-0.9,2.2-1.4C116.7,353.8,110.5,374.7,95.3,391.3L95.3,391.3z
		 M200.3,319.9c-5,12.2-15.5,43.5-21.9,41.8c-5.5-1.5-8.9-25.2-1.1-48.7c3.9-11.8,12.2-25.8,17.1-31.3c7.9-8.8,16.5-11.7,18.6-8.1
		C215.7,278.2,203.4,312.2,200.3,319.9L200.3,319.9z M287,361.3c-2.1,1.1-4.1,1.8-5,1.3c-0.6-0.4,0.9-1.8,0.9-1.8s10.9-11.7,15.2-17
		c2.5-3.1,5.4-6.8,8.5-10.9v1.2C306.5,348.1,293,357.5,287,361.3L287,361.3z M353.8,346.1c-1.6-1.1-1.3-4.7,3.9-16.2
		c2-4.5,6.8-12,14.9-19.2c0.9,2.9,1.6,5.8,1.5,8.4C374,336.8,361.4,343.3,353.8,346.1L353.8,346.1z"/>
</g>
</svg>
