<?xml version="1.0" encoding="utf-8"?>
<!-- Generator: Adobe Illustrator 24.2.1, SVG Export Plug-In . SVG Version: 6.00 Build 0)  -->
<svg version="1.1" id="Layer_1" xmlns="http://www.w3.org/2000/svg" xmlns:xlink="http://www.w3.org/1999/xlink" x="0px" y="0px"
	 viewBox="0 0 500 500" style="enable-background:new 0 0 500 500;" xml:space="preserve">
<style type="text/css">
	.st0{fill:#BCBBBB;}
	.st1{fill:#F48024;}
</style>
<g>
	<polygon class="st0" points="395.5,455.4 395.5,321.5 440.1,321.5 440.1,500 38.8,500 38.8,321.5 83.5,321.5 83.5,455.4 	"/>
	<path class="st1" d="M132.5,309.2l218.3,45.9l9.2-43.7l-218.3-45.9L132.5,309.2z M161.4,204.7l202.2,94.2l18.8-40.4l-202.2-94.2
		L161.4,204.7z M217.4,105.5l171.4,142.7l28.5-34.3L245.9,71.2L217.4,105.5z M328,0l-35.8,26.6l133.1,179l35.8-26.6L328,0z
		 M128.1,410.8l223.1,0v-44.6l-223.1,0V410.8z"/>
</g>
</svg>
