<svg id="Camada_3" data-name="Camada 3" xmlns="http://www.w3.org/2000/svg" viewBox="0 0 1080 1080"><defs><style>.cls-1{fill:#f2f2f2;}</style></defs><path class="cls-1" d="M982.41,410.87,834.61,263.06c-71.91-71.91-188.51-71.91-260.42,0h0a184.32,184.32,0,0,0-34.33,47.53h0a183.79,183.79,0,0,0-34.05-47h0a184.13,184.13,0,0,0-260.42,0L97.59,411.42a12.22,12.22,0,0,0,0,17.31L539.72,870.87,982.41,428.18A12.22,12.22,0,0,0,982.41,410.87ZM526.23,461.51A131,131,0,0,0,536.76,438L540,428.3l4.23,11.94a132.65,132.65,0,0,0,8.67,19.4l4.91,8.94a97.38,97.38,0,0,0-35.62,0ZM195.45,403.36h0l78.12-78.13a120.66,120.66,0,0,1,170.62,0h0a120.64,120.64,0,0,1,0,170.62L366.07,574ZM669.59,618.88,540.28,748.19,411,618.88h0l73.75-73.75a78.56,78.56,0,0,1,111.12,0l73.75,73.75ZM885.11,403.36,714.49,574l-78.13-78.13a120.66,120.66,0,0,1,0-170.62h0a120.66,120.66,0,0,1,170.62,0l78.13,78.13Z"/></svg>